<svg width="32" height="32" viewBox="0 0 32 32" fill="none" xmlns="http://www.w3.org/2000/svg">
<path d="M20 12H20.0133M22.0733 5.12411L26.876 9.92678C27.2323 10.283 27.5149 10.7059 27.7077 11.1713C27.9005 11.6368 27.9997 12.1356 27.9997 12.6394C27.9997 13.1432 27.9005 13.6421 27.7077 14.1075C27.5149 14.573 27.2323 14.9959 26.876 15.3521L23.352 18.8761C22.9958 19.2324 22.5729 19.515 22.1074 19.7078C21.642 19.9006 21.1431 19.9999 20.6393 19.9999C20.1355 19.9999 19.6367 19.9006 19.1712 19.7078C18.7058 19.515 18.2829 19.2324 17.9267 18.8761L17.5253 18.4748L8.78133 27.2188C8.33829 27.6617 7.75343 27.9346 7.12933 27.9894L6.896 28.0001H5.33333C5.00676 28.0001 4.69155 27.8802 4.4475 27.6632C4.20346 27.4461 4.04754 27.1471 4.00933 26.8228L4 26.6668V25.1041C4.00015 24.478 4.22058 23.872 4.62267 23.3921L4.78133 23.2188L5.33333 22.6668H8V20.0001H10.6667V17.3334L13.5253 14.4748L13.124 14.0734C12.7677 13.7172 12.4851 13.2943 12.2923 12.8289C12.0995 12.3634 12.0003 11.8646 12.0003 11.3608C12.0003 10.857 12.0995 10.3581 12.2923 9.89267C12.4851 9.42723 12.7677 9.00432 13.124 8.64811L16.648 5.12411C17.0042 4.76784 17.4271 4.48523 17.8926 4.29242C18.358 4.09961 18.8569 4.00037 19.3607 4.00037C19.8645 4.00037 20.3633 4.09961 20.8288 4.29242C21.2942 4.48523 21.7171 4.76784 22.0733 5.12411Z" stroke="currentColor" stroke-width="2" stroke-linecap="round" stroke-linejoin="round"/>
</svg>
