<svg width="32" height="32" viewBox="0 0 32 32" fill="none" xmlns="http://www.w3.org/2000/svg">
<path d="M10.9333 17.6C12.2902 14.0067 14.5921 10.8463 17.596 8.4526C20.6 6.05886 24.1944 4.52053 28 4C27.4795 7.80559 25.9413 11.4 23.5475 14.404C21.1538 17.4079 17.9934 19.7098 14.4001 21.0667M14.1335 12C16.7244 13.1958 18.8043 15.2758 20.0002 17.8667M4 28.0001V22.6667C4 21.6119 4.3128 20.5807 4.89883 19.7037C5.48487 18.8266 6.31782 18.143 7.29236 17.7393C8.26691 17.3357 9.33926 17.2301 10.3738 17.4359C11.4084 17.6416 12.3587 18.1496 13.1046 18.8955C13.8505 19.6414 14.3584 20.5917 14.5642 21.6262C14.77 22.6608 14.6644 23.7332 14.2607 24.7077C13.8571 25.6822 13.1735 26.5152 12.2964 27.1012C11.4193 27.6873 10.3882 28.0001 9.33335 28.0001H4Z" stroke="currentColor" stroke-width="2" stroke-linecap="round" stroke-linejoin="round"/>
</svg>
