<svg width="32" height="32" viewBox="0 0 32 32" fill="none" xmlns="http://www.w3.org/2000/svg">
<path d="M4 17.3333H28M10.6667 28H21.3333M13.3333 22.6667L12.6667 28M18.6667 22.6667L19.3333 28M4 5.33333C4 4.97971 4.14048 4.64057 4.39052 4.39052C4.64057 4.14048 4.97971 4 5.33333 4H26.6667C27.0203 4 27.3594 4.14048 27.6095 4.39052C27.8595 4.64057 28 4.97971 28 5.33333V21.3333C28 21.687 27.8595 22.0261 27.6095 22.2761C27.3594 22.5262 27.0203 22.6667 26.6667 22.6667H5.33333C4.97971 22.6667 4.64057 22.5262 4.39052 22.2761C4.14048 22.0261 4 21.687 4 21.3333V5.33333Z" stroke="currentColor" stroke-width="2" stroke-linecap="round" stroke-linejoin="round"/>
</svg>
