<svg width="32" height="32" viewBox="0 0 32 32" fill="none" xmlns="http://www.w3.org/2000/svg">
<path d="M23.3334 8H24.6667C25.374 8 26.0523 8.28095 26.5524 8.78105C27.0525 9.28115 27.3334 9.95942 27.3334 10.6667C27.3334 12.4348 26.631 14.1305 25.3808 15.3807C24.1305 16.631 22.4349 17.3333 20.6667 17.3333H14.0001V20M4.66675 6.66667C4.66675 5.95942 4.9477 5.28115 5.4478 4.78105C5.94789 4.28095 6.62617 4 7.33341 4H20.6667C21.374 4 22.0523 4.28095 22.5524 4.78105C23.0525 5.28115 23.3334 5.95942 23.3334 6.66667V9.33333C23.3334 10.0406 23.0525 10.7189 22.5524 11.219C22.0523 11.719 21.374 12 20.6667 12H7.33341C6.62617 12 5.94789 11.719 5.4478 11.219C4.9477 10.7189 4.66675 10.0406 4.66675 9.33333V6.66667ZM11.3334 21.3333C11.3334 20.9797 11.4739 20.6406 11.7239 20.3905C11.974 20.1405 12.3131 20 12.6667 20H15.3334C15.687 20 16.0262 20.1405 16.2762 20.3905C16.5263 20.6406 16.6667 20.9797 16.6667 21.3333V26.6667C16.6667 27.0203 16.5263 27.3594 16.2762 27.6095C16.0262 27.8595 15.687 28 15.3334 28H12.6667C12.3131 28 11.974 27.8595 11.7239 27.6095C11.4739 27.3594 11.3334 27.0203 11.3334 26.6667V21.3333Z" stroke="currentColor" stroke-width="2" stroke-linecap="round" stroke-linejoin="round"/>
</svg>
