<svg width="32" height="32" viewBox="0 0 32 32" fill="none" xmlns="http://www.w3.org/2000/svg">
<path d="M3.99988 16.2H5.19988M8.79988 11.4H6.39988C6.08162 11.4 5.77639 11.5264 5.55135 11.7515C5.32631 11.9765 5.19988 12.2817 5.19988 12.6V19.8C5.19988 20.1183 5.32631 20.4235 5.55135 20.6485C5.77639 20.8736 6.08162 21 6.39988 21H8.79988M12.3999 16.2H19.5999M23.1999 11.4H25.5999C25.9181 11.4 26.2234 11.5264 26.4484 11.7515C26.6735 11.9765 26.7999 12.2817 26.7999 12.6V19.8C26.7999 20.1183 26.6735 20.4235 26.4484 20.6485C26.2234 20.8736 25.9181 21 25.5999 21H23.1999M27.9999 16.2H26.7999M8.79988 10.2V22.2C8.79988 22.5183 8.92631 22.8235 9.15135 23.0485C9.37639 23.2736 9.68162 23.4 9.99988 23.4H11.1999C11.5181 23.4 11.8234 23.2736 12.0484 23.0485C12.2734 22.8235 12.3999 22.5183 12.3999 22.2V10.2C12.3999 9.88174 12.2734 9.57652 12.0484 9.35147C11.8234 9.12643 11.5181 9 11.1999 9H9.99988C9.68162 9 9.37639 9.12643 9.15135 9.35147C8.92631 9.57652 8.79988 9.88174 8.79988 10.2ZM19.5999 10.2V22.2C19.5999 22.5183 19.7263 22.8235 19.9514 23.0485C20.1764 23.2736 20.4816 23.4 20.7999 23.4H21.9999C22.3181 23.4 22.6234 23.2736 22.8484 23.0485C23.0735 22.8235 23.1999 22.5183 23.1999 22.2V10.2C23.1999 9.88174 23.0735 9.57652 22.8484 9.35147C22.6234 9.12643 22.3181 9 21.9999 9H20.7999C20.4816 9 20.1764 9.12643 19.9514 9.35147C19.7263 9.57652 19.5999 9.88174 19.5999 10.2Z" stroke="currentColor" stroke-width="2" stroke-linecap="round" stroke-linejoin="round"/>
</svg>
