<svg width="32" height="32" viewBox="0 0 32 32" fill="none" xmlns="http://www.w3.org/2000/svg">
<path d="M13.3333 5.33329L16 6.66663L18.6666 5.33329M16 2.66663V11.3333L20 13.6266M23.904 8.35722L24.0826 11.3332L26.5706 12.9759M27.5467 9.33329L20.0413 13.6666L20.0547 18.2773M26.5706 19.0239L24.0826 20.6666L23.904 23.6426M27.5467 22.6666L20.0413 18.3333L16.0547 20.6506M18.6666 26.6666L16 25.3333L13.3333 26.6666M16 29.3333V20.6667L12 18.3733M8.09601 23.6426L7.91734 20.6666L5.42934 19.0239M4.45343 22.6666L11.9588 18.3333L11.9454 13.7226M5.42934 12.9759L7.91734 11.3332L8.09601 8.35722M4.45343 9.33329L11.9588 13.6666L15.9454 11.3493" stroke="currentColor" stroke-width="2" stroke-linecap="round" stroke-linejoin="round"/>
</svg>
