<svg width="32" height="32" viewBox="0 0 32 32" fill="none" xmlns="http://www.w3.org/2000/svg">
<path d="M6.66667 22.6667C6.66667 23.3739 6.94762 24.0522 7.44772 24.5523C7.94781 25.0524 8.62609 25.3333 9.33333 25.3333C10.0406 25.3333 10.7189 25.0524 11.219 24.5523C11.719 24.0522 12 23.3739 12 22.6667M6.66667 22.6667C6.66667 21.9594 6.94762 21.2811 7.44772 20.781C7.94781 20.281 8.62609 20 9.33333 20C10.0406 20 10.7189 20.281 11.219 20.781C11.719 21.2811 12 21.9594 12 22.6667M6.66667 22.6667H4V14.6667M12 22.6667H20M20 22.6667C20 23.3739 20.281 24.0522 20.781 24.5523C21.2811 25.0524 21.9594 25.3333 22.6667 25.3333C23.3739 25.3333 24.0522 25.0524 24.5523 24.5523C25.0524 24.0522 25.3333 23.3739 25.3333 22.6667M20 22.6667C20 21.9594 20.281 21.2811 20.781 20.781C21.2811 20.281 21.9594 20 22.6667 20C23.3739 20 24.0522 20.281 24.5523 20.781C25.0524 21.2811 25.3333 21.9594 25.3333 22.6667M25.3333 22.6667H28V17.3333C28 16.6261 27.719 15.9478 27.219 15.4477C26.7189 14.9476 26.0406 14.6667 25.3333 14.6667H24M4 14.6667L6.66667 8H18.6667L24 14.6667M4 14.6667H24M16 14.6667V8" stroke="currentColor" stroke-width="2" stroke-linecap="round" stroke-linejoin="round"/>
</svg>
