<svg width="32" height="32" viewBox="0 0 32 32" fill="none" xmlns="http://www.w3.org/2000/svg">
<path d="M19.6 18C18.1333 15.3334 17.6786 14.6667 16 14.6667C14.3213 14.6667 13.6853 15.6734 12.2186 18.3294C10.9626 20.6 8.42397 20.7894 7.79064 22.7174C7.66131 23.0707 7.59731 23.62 7.59997 24C7.59997 25.568 8.64931 26.6667 9.99997 26.6667C11.6786 26.6667 14 25.3334 16 25.3334C18 25.3334 20.3213 26.6667 22 26.6667C23.3506 26.6667 24.4 25.5694 24.4 24C24.4 23.62 24.3346 23.0707 24.2053 22.7174C23.572 20.7827 20.856 20.2707 19.6 18Z" stroke="currentColor" stroke-width="2" stroke-linecap="round" stroke-linejoin="round"/>
<path d="M26.9174 10.776C26.7461 10.7036 26.562 10.6665 26.376 10.6667H26.356C25.376 10.6827 24.276 11.6667 23.6987 13.1547C23.0067 14.9347 23.3254 16.7547 24.416 17.224C24.588 17.2974 24.772 17.3334 24.9574 17.3334C25.9427 17.3334 27.0574 16.344 27.6387 14.8454C28.3267 13.0654 28.0014 11.2454 26.9174 10.776Z" stroke="currentColor" stroke-width="2" stroke-linecap="round" stroke-linejoin="round"/>
<path d="M12.6319 12C12.7052 12 12.7772 12 12.8492 11.9854C14.1079 11.8147 14.8932 10.1907 14.6092 8.35604C14.3386 6.62671 13.2132 5.33337 12.0332 5.33337C11.9599 5.33337 11.8879 5.33337 11.8159 5.34804C10.5572 5.51871 9.77189 7.14271 10.0559 8.97737C10.3279 10.7014 11.4532 12 12.6332 12H12.6319Z" stroke="currentColor" stroke-width="2" stroke-linecap="round" stroke-linejoin="round"/>
<path d="M21.9413 8.97738C22.2266 7.14271 21.4413 5.51871 20.1813 5.34804C20.1097 5.33813 20.0376 5.33323 19.9653 5.33338C18.7853 5.33338 17.6613 6.62671 17.392 8.35604C17.1066 10.1907 17.892 11.8147 19.152 11.9854C19.224 11.9947 19.296 12 19.368 12C20.548 12 21.6746 10.7014 21.9413 8.97738Z" stroke="currentColor" stroke-width="2" stroke-linecap="round" stroke-linejoin="round"/>
<path d="M7.58655 17.224C8.67455 16.7547 8.99189 14.932 8.30122 13.1547C7.71989 11.656 6.60655 10.6667 5.62255 10.6667C5.43589 10.6667 5.25322 10.7027 5.07989 10.776C3.99189 11.2454 3.67455 13.068 4.36522 14.8454C4.94655 16.344 6.05989 17.3334 7.04389 17.3334C7.23055 17.3334 7.41322 17.2974 7.58655 17.224Z" stroke="currentColor" stroke-width="2" stroke-linecap="round" stroke-linejoin="round"/>
</svg>
