<svg width="32" height="32" viewBox="0 0 32 32" fill="none" xmlns="http://www.w3.org/2000/svg">
<path d="M4.64795 11.9533C4.87195 11.9799 5.10128 11.9973 5.33328 11.9999C6.38662 12.0119 7.38528 11.7626 7.99995 11.3333C8.61462 10.9066 9.61328 10.6573 10.6666 10.6666C11.7199 10.6573 12.7186 10.9066 13.3333 11.3333C13.9479 11.7626 14.9466 12.0119 15.9999 11.9999C17.0533 12.0119 18.0519 11.7626 18.6666 11.3333C19.2813 10.9066 20.2799 10.6573 21.3333 10.6666C22.3866 10.6573 23.3853 10.9066 23.9999 11.3333C24.6146 11.7626 25.6133 12.0119 26.6666 11.9999C26.8933 11.9999 27.1186 11.9813 27.3373 11.9546M4 8L6.29467 21.772C6.39851 22.3947 6.71987 22.9603 7.20157 23.3682C7.68327 23.7762 8.29408 24.0001 8.92533 24H23.0747C23.7059 24.0001 24.3167 23.7762 24.7984 23.3682C25.2801 22.9603 25.6015 22.3947 25.7053 21.772L28 8" stroke="currentColor" stroke-width="2" stroke-linecap="round" stroke-linejoin="round"/>
</svg>
