<svg width="32" height="32" viewBox="0 0 32 32" fill="none" xmlns="http://www.w3.org/2000/svg">
<path d="M13.3333 4.2666C11.2476 4.75012 9.32922 5.78287 7.77716 7.25772C6.22511 8.73257 5.09591 10.5958 4.5067 12.6542C3.91748 14.7125 3.8897 16.8911 4.42624 18.9638C4.96279 21.0365 6.04411 22.9279 7.55805 24.4419C9.072 25.9558 10.9634 27.0371 13.0361 27.5737C15.1089 28.1102 17.2874 28.0824 19.3458 27.4932C21.4041 26.904 23.2674 25.7748 24.7422 24.2228C26.2171 22.6707 27.2498 20.7523 27.7333 18.6666C27.7333 18.313 27.5928 17.9738 27.3428 17.7238C27.0928 17.4737 26.7536 17.3333 26.4 17.3333H21.3333C21.0909 18.2653 20.6066 19.1167 19.9294 19.8014C19.2523 20.4861 18.4062 20.9798 17.477 21.2324C16.5477 21.4851 15.5682 21.4878 14.6375 21.2402C13.7068 20.9927 12.8581 20.5037 12.1772 19.8228C11.4962 19.1418 11.0072 18.2931 10.7597 17.3624C10.5121 16.4318 10.5148 15.4522 10.7675 14.523C11.0202 13.5937 11.5138 12.7477 12.1985 12.0705C12.8832 11.3933 13.7347 10.909 14.6667 10.6666V5.33327C14.6501 5.1753 14.6023 5.0222 14.5261 4.88283C14.45 4.74346 14.3469 4.6206 14.2228 4.52138C14.0988 4.42216 13.9563 4.34855 13.8036 4.30481C13.6509 4.26108 13.4911 4.24809 13.3333 4.2666Z" stroke="currentColor" stroke-width="2" stroke-linecap="round" stroke-linejoin="round"/>
<path d="M20 4.66663C21.693 5.26274 23.2307 6.23102 24.4998 7.50017C25.769 8.76932 26.7373 10.307 27.3334 12H21.3334C20.9246 11.5212 20.4788 11.0754 20 10.6666V4.66663Z" stroke="currentColor" stroke-width="2" stroke-linecap="round" stroke-linejoin="round"/>
</svg>
