<svg width="32" height="32" viewBox="0 0 32 32" fill="none" xmlns="http://www.w3.org/2000/svg">
<path d="M8.79994 13.8V13.812M13.5999 13.8V13.812M18.3999 13.8V13.812M23.1999 13.8V13.812M8.79994 18.6V18.612M23.1999 18.6V18.612M13.5999 18.6L18.3999 18.612M3.99994 11.4C3.99994 10.7635 4.2528 10.153 4.70288 9.70294C5.15297 9.25286 5.76342 9 6.39994 9H25.5999C26.2365 9 26.8469 9.25286 27.297 9.70294C27.7471 10.153 27.9999 10.7635 27.9999 11.4V21C27.9999 21.6365 27.7471 22.247 27.297 22.6971C26.8469 23.1471 26.2365 23.4 25.5999 23.4H6.39994C5.76342 23.4 5.15297 23.1471 4.70288 22.6971C4.2528 22.247 3.99994 21.6365 3.99994 21V11.4Z" stroke="currentColor" stroke-width="2" stroke-linecap="round" stroke-linejoin="round"/>
</svg>
