<svg width="32" height="32" viewBox="0 0 32 32" fill="none" xmlns="http://www.w3.org/2000/svg">
<path d="M5.33337 5.33337C10.9913 5.33337 16.4175 7.58099 20.4183 11.5818C24.4191 15.5825 26.6667 21.0088 26.6667 26.6667M5.33337 14.6667C8.51597 14.6667 11.5682 15.931 13.8187 18.1814C16.0691 20.4319 17.3334 23.4841 17.3334 26.6667M5.33337 25.3334C5.33337 25.687 5.47385 26.0261 5.7239 26.2762C5.97395 26.5262 6.31309 26.6667 6.66671 26.6667C7.02033 26.6667 7.35947 26.5262 7.60952 26.2762C7.85956 26.0261 8.00004 25.687 8.00004 25.3334C8.00004 24.9798 7.85956 24.6406 7.60952 24.3906C7.35947 24.1405 7.02033 24 6.66671 24C6.31309 24 5.97395 24.1405 5.7239 24.3906C5.47385 24.6406 5.33337 24.9798 5.33337 25.3334Z" stroke="currentColor" stroke-width="2" stroke-linecap="round" stroke-linejoin="round"/>
</svg>
