<svg width="21" height="26" viewBox="0 0 21 26" fill="none" xmlns="http://www.w3.org/2000/svg">
<path d="M14.8462 17.6154V20.3846M5.61538 12.0769H5.62523V12.0868H5.61538V12.0769ZM5.61538 14.8462H5.62523V14.856H5.61538V14.8462ZM5.61538 17.6154H5.62523V17.6252H5.61538V17.6154ZM5.61538 20.3846H5.62523V20.3945H5.61538V20.3846ZM8.68985 12.0769H8.69846V12.0868H8.68985V12.0769ZM8.68985 14.8462H8.69846V14.856H8.68985V14.8462ZM8.68985 17.6154H8.69846V17.6252H8.68985V17.6154ZM8.68985 20.3846H8.69846V20.3945H8.68985V20.3846ZM11.7717 12.0769H11.7815V12.0868H11.7717V12.0769ZM11.7717 14.8462H11.7815V14.856H11.7717V14.8462ZM11.7717 17.6154H11.7815V17.6252H11.7717V17.6154ZM11.7717 20.3846H11.7815V20.3945H11.7717V20.3846ZM14.8462 12.0769H14.856V12.0868H14.8462V12.0769ZM14.8462 14.8462H14.856V14.856H14.8462V14.8462ZM5.61538 5.61539H14.8462V8.38462H5.61538V5.61539ZM10.2308 1C7.90215 1 5.60554 1.13539 3.34708 1.39631C1.99323 1.55385 1 2.72308 1 4.08554V22.2308C1 22.9652 1.29176 23.6696 1.81109 24.1889C2.33042 24.7082 3.03478 25 3.76923 25H16.6923C17.4268 25 18.1311 24.7082 18.6504 24.1889C19.1698 23.6696 19.4615 22.9652 19.4615 22.2308V4.08554C19.4615 2.72185 18.4695 1.55385 17.1145 1.39631C14.8294 1.1317 12.5311 0.99938 10.2308 1V1Z" stroke="black" stroke-width="1.5" stroke-linecap="round" stroke-linejoin="round"/>
</svg>
