<svg xmlns="http://www.w3.org/2000/svg" width="240" height="40" viewBox="0 0 240 40" version="1.1"><path d="M 18.966 2.027 C 17.762 2.776, 17.723 3.299, 18.750 4.956 C 20.653 8.026, 20.254 17.844, 18.027 22.750 C 15.909 27.415, 16.167 27.653, 21.128 25.614 C 22.983 24.852, 25.962 23.916, 27.749 23.535 C 30.567 22.933, 30.909 23.072, 30.330 24.581 C 29.791 25.988, 30.079 26.213, 31.831 25.754 C 33.594 25.293, 34 25.620, 34 27.497 C 34 29.727, 33.626 29.830, 23.250 30.461 C 17.337 30.821, 11.262 31.350, 9.750 31.637 L 7 32.159 7 23.079 L 7 14 13 14 C 16.333 14, 19 13.556, 19 13 C 19 12.429, 16 12, 12 12 L 5 12 5 24.089 L 5 36.178 11.013 35.839 C 15.518 35.585, 16.905 35.813, 16.544 36.750 C 15.951 38.291, 24.554 38.531, 25.500 37 C 25.840 36.450, 25.529 35.955, 24.809 35.900 C 22.292 35.709, 28.533 34.198, 32.250 34.100 L 36 34 36 29.073 C 36 25.222, 35.618 24.047, 34.250 23.689 C 33.091 23.386, 33.364 23.193, 35.059 23.116 C 36.466 23.052, 38.472 23.625, 39.517 24.389 C 41.874 26.112, 44 25.402, 44 22.893 C 44 21.192, 43.163 20.996, 35.750 20.958 L 27.500 20.916 31 19 C 32.925 17.946, 35.737 17.065, 37.250 17.042 C 39.291 17.011, 40 16.500, 40 15.059 C 40 12.359, 38.196 11.521, 36.187 13.288 C 35.259 14.104, 32.122 15.964, 29.216 17.420 L 23.932 20.068 26.537 15.941 C 29.098 11.885, 29.207 8.436, 26.749 9.245 C 26.062 9.471, 25.343 10.734, 25.151 12.050 C 24.960 13.366, 24.257 15.223, 23.590 16.175 C 22.597 17.592, 22.404 16.549, 22.525 10.440 C 22.678 2.705, 21.678 0.340, 18.966 2.027" stroke="none" fill="#14dba0" fill-rule="evenodd"/><path d="M 165.200 9.200 C 163.499 10.901, 163.713 12.733, 165.750 13.920 C 167.417 14.891, 167.417 14.941, 165.750 14.970 C 164.191 14.997, 164 16.202, 164 26 L 164 37 167.500 37 L 171 37 170.985 27.250 C 170.976 21.887, 170.550 16.837, 170.037 16.026 C 169.429 15.065, 169.502 14.308, 170.246 13.848 C 171.097 13.322, 171.089 12.492, 170.215 10.572 C 168.949 7.795, 167.109 7.291, 165.200 9.200 M 55 26 L 55 37 58.500 37 C 61.840 37, 62 36.838, 62 33.465 L 62 29.930 65.104 33.465 C 67.512 36.209, 68.968 37, 71.604 37 C 73.472 37, 75 36.735, 75 36.411 C 75 36.088, 72.979 33.513, 70.510 30.689 L 66.019 25.556 70.010 21.490 C 72.204 19.254, 74 16.879, 74 16.212 C 74 13.925, 67.758 14.858, 64.930 17.567 L 62.250 20.134 61.606 17.567 C 61.095 15.529, 60.347 15, 57.981 15 L 55 15 55 26 M 77.233 17.782 C 71.156 23.459, 72.622 32.397, 80.269 36.295 C 90.253 41.383, 99.762 31.175, 94.506 21.011 C 91.074 14.375, 82.580 12.787, 77.233 17.782 M 97 25.884 L 97 37 103.911 37 C 110.401 37, 110.980 36.812, 113.411 33.923 C 117.087 29.555, 116.986 23.605, 113.158 19.020 C 110.544 15.890, 109.778 15.581, 103.658 15.191 L 97 14.767 97 25.884 M 124 26 L 124 37 127.500 37 C 130.917 37, 131 36.905, 131 33 C 131 29.141, 131.117 29, 134.300 29 C 136.115 29, 138.075 28.525, 138.656 27.944 C 139.396 27.204, 140.093 27.810, 140.991 29.978 C 145.790 41.565, 163.016 39.255, 162.993 27.027 C 162.981 20.286, 157.852 15.081, 151.173 15.032 C 147.754 15.007, 146.265 15.581, 144.076 17.770 L 141.306 20.540 138.768 17.770 C 136.525 15.322, 135.519 15, 130.115 15 L 124 15 124 26 M 173 26 L 173 37 175.950 37 C 178.832 37, 178.907 36.870, 179.200 31.366 L 179.500 25.732 183.372 31.366 C 186.787 36.335, 187.642 37, 190.622 37 L 194 37 194 29 C 194 21.133, 194.042 21, 196.500 21 C 198.958 21, 199 21.133, 199 29 L 199 37 202 37 L 205 37 205 29 C 205 21.133, 205.042 21, 207.500 21 C 209.612 21, 210 20.534, 210 17.993 L 210 14.985 198.547 15.074 L 187.095 15.162 186.797 20.831 L 186.500 26.500 182.500 20.762 C 179.285 16.150, 177.960 15.021, 175.750 15.012 L 173 15 173 26 M 65.405 19.250 L 63.500 21.500 65.750 19.595 C 67.864 17.805, 68.455 17, 67.655 17 C 67.465 17, 66.453 18.012, 65.405 19.250 M 82.223 22.557 C 79.805 24.250, 79.291 27.891, 81.200 29.800 C 84.028 32.628, 90 30.049, 90 26 C 90 23.904, 87.474 21, 85.651 21 C 84.988 21, 83.445 21.701, 82.223 22.557 M 104 25.930 C 104 29.328, 104.412 30.995, 105.250 30.985 C 108.037 30.951, 109.133 29.235, 108.819 25.398 C 108.560 22.235, 108.076 21.440, 106.250 21.180 C 104.171 20.885, 104 21.245, 104 25.930 M 131 22 C 131 22.550, 131.900 23, 133 23 C 134.100 23, 135 22.550, 135 22 C 135 21.450, 134.100 21, 133 21 C 131.900 21, 131 21.450, 131 22 M 149.223 22.557 C 146.583 24.406, 146.169 29.467, 148.582 30.393 C 151.683 31.583, 153.978 30.964, 155.592 28.500 C 157.109 26.184, 157.109 25.816, 155.592 23.500 C 153.693 20.601, 152.307 20.396, 149.223 22.557" stroke="none" fill="#bd6186" fill-rule="evenodd"/></svg>